<?xml version="1.0" encoding="UTF-8"?>
<svg width="467px" height="105px" viewBox="0 0 467 105" version="1.1" xmlns="http://www.w3.org/2000/svg" xmlns:xlink="http://www.w3.org/1999/xlink">
    <!-- Generator: Sketch 50.2 (55047) - http://www.bohemiancoding.com/sketch -->
    <title>Group</title>
    <desc>Created with Sketch.</desc>
    <defs>
        <polygon id="path-1" points="0.584043234 0.864 134.459 0.864 134.459 103.32 0.584043234 103.32"></polygon>
    </defs>
    <g id="Page-1" stroke="none" stroke-width="1" fill="none" fill-rule="evenodd">
        <g id="WeWork_Logo__1_">
            <g id="Group">
                <path d="M46.578,51.952 C44.413,51.525 41.896,51.382 39.113,51.382 C34.077,51.382 31.119,51.985 31.119,53.533 C31.119,54.395 31.584,56.114 32.541,58.205 C34.718,63.19 40.989,75.986 43.67,80.525 C45.836,76.685 51.162,66.445 51.917,63.585 C52.408,61.729 52.408,60.483 52.408,59.33 C52.408,57.058 49.714,52.501 46.578,51.952 Z M50.802,46.091 C60.679,46.091 68.46,45.943 78.482,45.632 C80.2,45.791 80.055,50.041 78.965,50.625 L76.643,51.028 C73.017,51.752 70.859,52.463 70.859,53.194 C70.859,54.346 71.148,55.169 72.085,57.589 C74.944,64.43 79.287,73.638 82.762,80.469 C86.513,72.248 88.988,65.286 91.474,58.699 C92.431,56.172 92.889,54.161 92.889,53.155 C92.889,52.443 91.632,51.739 88.944,51.192 L86.312,50.625 C85.355,49.579 85.355,46.23 86.929,45.632 C92.103,45.903 95.818,46.048 99.752,46.048 C104.29,46.038 108.357,45.884 111.781,45.596 C113.186,46.195 113.511,49.29 112.273,50.587 L110.07,51.003 C104.92,51.998 103.837,53.438 101.326,58.699 C94.156,73.197 86.992,88.861 80.458,103.929 C79.501,104.787 78.393,104.944 76.832,104.944 C75.271,104.955 74.188,104.787 73.231,103.956 C69.945,96.282 61.781,79.639 57.079,70.575 C53.05,77.952 43.701,96.892 40.095,103.979 C39.163,104.838 38.068,104.975 36.507,105 C34.922,105 33.851,104.838 32.906,103.992 C25.365,87.948 17.673,71.612 10.03,56.833 C7.821,52.708 6.254,52.123 3.584,51.423 L0.739,50.734 C-0.318,49.579 -0.318,46.49 1.243,45.723 C7.651,46.007 12.661,46.132 19.228,46.132 L50.802,46.091 Z" id="Fill-1" fill="#FFFFFF"></path>
                <path d="M137.477,62.912 C139.63,62.912 142.161,62.623 143.88,61.629 C144.653,61.201 144.975,59.779 144.975,58.342 C144.967,53.668 141.958,50.549 136.658,50.549 C130.112,50.575 124.465,56.266 124.465,60.785 C124.465,62.787 126.637,62.944 131.673,62.912 L137.477,62.912 Z M127.154,69.183 C123.553,69.183 123.238,69.477 123.238,71.749 C123.238,82.408 130.767,92.777 145.32,92.744 C149.683,92.744 155.656,91.915 159.861,85.342 C161.562,85.052 163.915,86.205 163.915,88.622 C157.545,100.72 145.962,104.838 136.571,104.849 C115.445,104.886 104.051,91.397 104.008,75.892 C104.008,57.978 118.19,44.035 137.741,44.009 C154.026,43.984 162.77,53.513 162.783,64.462 C162.783,67.124 162.034,69.132 157.154,69.144 L127.154,69.183 Z" id="Fill-3" fill="#FFFFFF"></path>
                <path d="M209.679,51.739 C207.502,51.323 205.002,51.179 202.189,51.192 C197.158,51.192 194.194,51.752 194.194,53.305 C194.194,54.161 194.71,55.9 195.654,57.989 C197.82,62.975 204.103,75.761 206.759,80.31 C208.949,76.477 214.261,66.248 214.998,63.391 C215.477,61.541 215.477,60.269 215.477,59.11 C215.477,56.864 212.821,52.274 209.679,51.739 Z M213.91,45.884 C223.742,45.871 231.592,45.723 241.59,45.425 C243.294,45.576 243.143,49.807 242.021,50.43 L239.704,50.833 C236.1,51.564 233.921,52.263 233.921,52.978 C233.921,54.125 234.249,54.949 235.174,57.373 C238.007,64.227 242.399,73.438 245.845,80.269 C249.59,72.01 252.082,65.051 254.567,58.475 C255.494,55.924 255.997,53.943 255.997,52.947 C255.997,52.211 254.714,51.525 252.057,50.966 L249.412,50.399 C248.456,49.391 248.456,46.007 250.024,45.408 C255.179,45.696 258.93,45.822 262.856,45.808 C267.378,45.808 271.444,45.671 274.881,45.388 C276.304,45.978 276.613,49.089 275.374,50.36 L273.176,50.815 C268.021,51.784 266.936,53.213 264.431,58.475 C257.257,72.985 250.08,88.671 243.533,103.721 C242.601,104.587 241.5,104.731 239.92,104.731 C238.384,104.731 237.262,104.587 236.338,103.721 C233.07,96.055 224.887,79.424 220.192,70.335 C216.118,77.743 206.796,96.677 203.189,103.771 C202.251,104.622 201.175,104.787 199.608,104.787 C198.021,104.787 196.951,104.63 196.007,103.771 C188.485,87.727 180.747,71.381 173.106,56.599 C170.897,52.488 169.341,51.927 166.685,51.217 L163.878,50.513 C162.77,49.391 162.745,46.238 164.331,45.538 C170.734,45.808 175.738,45.943 182.322,45.934 L213.91,45.884 Z" id="Fill-4" fill="#FFFFFF"></path>
                <path d="M290.002,72.248 C290.04,87.147 295.226,98.121 304.273,98.099 C313.161,98.076 316.156,88.853 315.963,76.056 C315.805,62.258 311.418,50.31 302.522,50.31 C295.58,50.346 289.99,56.769 290.002,72.248 Z M267.491,75.394 C267.315,55.069 284.979,43.801 303.417,43.801 C321.86,43.788 338.486,53.974 338.49,74.016 C338.522,94.802 321.793,104.622 302.567,104.654 C283.947,104.681 267.669,95.015 267.491,75.394 Z" id="Fill-5" fill="#FFFFFF"></path>
                <g id="Group-9" transform="translate(332.000000, 0.000000)">
                    <mask id="mask-2" fill="white">
                        <use xlink:href="#path-1"></use>
                    </mask>
                    <g id="Clip-7"></g>
                    <path d="M10.223,64.938 C10.206,59.235 10.206,57.526 7.235,55.812 L5.019,54.559 C3.924,53.677 3.924,51.154 5.019,50.279 C12.226,48.408 23.004,44.571 27.863,41.73 C29.096,41.73 30.054,42.161 30.664,43.015 C30.366,45.871 30.054,47.829 30.054,49.122 C30.054,50.107 30.366,50.549 31.608,50.833 C35.839,48.39 40.339,43.712 46.924,43.694 C51.167,43.694 55.541,46.677 55.541,52.06 C55.566,58.618 50.55,61.327 45.557,61.327 C43.362,61.327 41.472,60.483 39.453,58.772 C35.839,56.065 34.436,55.924 33.515,55.924 C31.306,55.937 30.513,59.06 30.519,64.473 L30.545,86.386 C30.588,96.318 31.223,97.478 36.375,97.875 L41.379,98.29 C42.618,99.145 42.631,102.427 41.234,103.264 C33.691,102.999 27.472,102.858 20.12,102.858 C13.691,102.885 6.825,103.017 1.65,103.32 C0.273,102.481 0.242,99.209 1.488,98.341 L4.47,98.063 C9.633,97.616 10.251,96.349 10.223,86.393 L10.223,64.938" id="Fill-6" fill="#FFFFFF" mask="url(#mask-2)"></path>
                    <path d="M54.918,14.55 L52.261,13.126 C51.167,12.279 51.167,9.711 52.261,8.84 C58.696,7.404 68.187,3.979 76.19,0.864 C77.114,0.864 78.246,1.109 78.843,1.84 C78.56,7.667 78.399,13.619 78.399,22.606 L78.448,67.224 C78.448,68.812 78.926,69.238 80.657,69.238 C83.296,69.238 86.594,68.528 89.734,65.25 L96.263,58.241 C99.234,54.988 100.022,53.438 100.022,52.569 C100.022,51.858 98.454,51.287 97.025,51.179 L93.139,50.599 C91.724,49.335 91.857,46.195 93.435,45.619 L97.182,45.596 C104.547,45.596 117.529,44.865 126.744,43.607 C128.315,44.293 128.482,47.409 127.398,48.565 L122.4,49.542 C119.435,50.146 116.116,51.564 111.913,54.559 C105.996,58.682 103.616,60.793 101.443,62.825 C100.656,63.669 100.498,64.246 100.498,64.676 C100.498,65.103 100.809,65.942 101.614,67.085 C104.417,71.619 118.219,90.943 122.149,94.217 C124.339,96.055 127.286,96.759 131.363,97.452 L133.693,97.899 C134.932,98.876 134.624,102.305 133.089,102.858 C128.248,102.59 122.457,102.445 113.4,102.445 C104.144,102.445 98.504,102.621 94.122,102.911 C92.562,102.211 92.27,99.221 93.517,97.957 L95.57,97.497 C97.12,97.207 98.051,96.924 98.051,96.391 C98.051,95.783 96.628,93.539 95.388,91.825 L84.246,76.477 C83.17,74.912 81.912,74.338 80.325,74.338 C79.254,74.338 78.448,75.068 78.466,77.775 L78.475,86.002 C78.486,95.98 79.102,97.112 84.625,97.647 L87.098,97.957 C88.357,98.793 88.383,102.092 86.934,102.923 C81.943,102.652 75.376,102.512 68.18,102.512 C61.024,102.521 54.566,102.679 49.102,102.968 C47.68,102.135 47.68,98.855 48.914,98.007 L51.909,97.71 C57.536,97.157 58.179,95.999 58.166,86.026 L58.091,23.474 C58.078,17.758 58.078,16.23 54.918,14.55 Z" id="Fill-8" fill="#FFFFFF" mask="url(#mask-2)"></path>
                </g>
            </g>
        </g>
    </g>
</svg>